# xmcd CD database file
#
# Track frame offsets:
#	150
#	31782
#	51949
#	60890
#	73438
#	108709
#	114225
#	128158
#	144987
#	161803
#	173403
#	194256
#
# Disc length: 2753 seconds
#
# Revision: 0
# Processed by: cddbd v1.5.2PL0 Copyright (c) Steve Scherf et al.
# Submitted via: CDex 1.50
#
DISCID=a30abf0c
DTITLE=Michael Riessler - Orange
DYEAR=2000
DGENRE=Jazz
TTITLE0=01
TTITLE1=02
TTITLE2=03
TTITLE3=04
TTITLE4=05
TTITLE5=06_07
TTITLE6=08
TTITLE7=09
TTITLE8=10
TTITLE9=11
TTITLE10=12
TTITLE11=13
EXTD=YEAR: 2000
EXTT0=
EXTT1=
EXTT2=
EXTT3=
EXTT4=
EXTT5=
EXTT6=
EXTT7=
EXTT8=
EXTT9=
EXTT10=
EXTT11=
PLAYORDER=
